<svg viewBox="0 0 722 311" fill="none" xmlns="http://www.w3.org/2000/svg" class="site-logo">
  <g>
    <path d="M9.55 223.27a71.611 71.611 0 0071.53 71.53h71.54v-71.56H91.88l31 22.77v19.1h-41.8a41.85 41.85 0 010-83.69h48.77l22.77 31v-60.69H81.08a71.619 71.619 0 00-71.53 71.54zM309.54 229.27v-66.44l-20.82 12.41 16.82-23.51h-56.73l31 22.77v54.77a41.85 41.85 0 01-83.69 0V174.5l31-22.77h-60.65v77.54a71.54 71.54 0 00143.07 0zM555.42 265.11v-31.04l-22.77 31.04h-59.57V174.5l31.04-22.77h-87.8l4.39 6.14 22.68 16.63v97.53l-31.04 22.77h143.07v-29.69z" fill="#fff"></path>
    <path d="M712.34 223.27a71.62 71.62 0 00-71.53-71.54H513.66l40.47 29.69h86.68a41.85 41.85 0 010 83.69H599V246l31-22.78h-60.73v71.58h71.54a71.61 71.61 0 0071.53-71.53zM376.3 272.03V174.5l24.93-18.28-7.52-4.49h-18.97l-13.81 66-13.81-66h-18.96l-6.94 4.14 25.4 18.63v97.53l-31.05 22.77h91.78l-31.05-22.77z" fill="#fff"></path>
    <path d="M15.55 223.27a65.608 65.608 0 0065.53 65.53h65.54v-59.56H110.2L124.89 240h4v31.1H81.08a47.818 47.818 0 01-44.597-30.627A47.82 47.82 0 0149 187.84a152.403 152.403 0 01-15.33-9.7 65.3 65.3 0 00-18.12 45.13zM467.08 238.86a961.775 961.775 0 01-17.69 1.51v34.7l-18.72 13.73h118.75v-36.4l-13.73 18.71h-68.61v-32.25zM370.3 243.67H352.61v31.39L333.9 288.8H389l-18.7-13.73v-31.4zM238 277.11a47.89 47.89 0 01-47.81-46.53c-6-.993-11.91-2.037-17.73-3.13v1.82a65.54 65.54 0 00129.78 13c-6-.3-11.97-.633-17.91-1A47.92 47.92 0 01238 277.11zM688.26 178.15a152.48 152.48 0 01-15.33 9.69 47.817 47.817 0 01-5.051 74.889 47.825 47.825 0 01-27.069 8.381H593V243l18.72-13.74h-36.45v59.54h65.54a65.48 65.48 0 0047.45-110.65z" fill="#003C83"></path>
    <path d="M640.81 141.73H409.16l7.15 10h87.81l-31 22.77v90.61h59.57l22.77-31v60.69H412.35l31-22.77V174.5l-22.7-16.65 12.44 17.39-31.91-19-24.88 18.26V272l31.05 22.77h-91.78L346.62 272v-97.5l-25.41-18.63-11.67 6.95v66.45a71.543 71.543 0 01-71.535 70.694 71.537 71.537 0 01-71.535-70.694v-77.54h60.74l-31 22.77v54.77a41.85 41.85 0 0083.69 0V174.5l-31-22.77h56.72l7.15-10H81.08a81.541 81.541 0 00-57.073 138.872A81.541 81.541 0 0081.08 304.8h81.54v-44.51a81.532 81.532 0 00156.92-31v-62.24l17.07 12.52V267L285 304.8h355.81a81.542 81.542 0 0080.637-81.535 81.539 81.539 0 00-80.637-81.535zm-371 37.84v49.7a31.852 31.852 0 01-31.845 31.286 31.853 31.853 0 01-31.845-31.286v-49.7L238 156.21l31.81 23.36zm-117.19 32.89l-22.77-31H81.08a41.85 41.85 0 000 83.69h41.85V246l-31-22.77h60.74v71.57H81.08a71.54 71.54 0 010-143.07h71.54v60.73zm-11.83.78H61.34l51.59 37.83v4H81.08a31.85 31.85 0 010-63.69h43.7l16.01 21.86zM386.3 267v-87.4l23.55-17.27 23.54 17.27V267l-23.54 17.26L386.3 267zm141.28-11.86h-44.5v-75.57l25.81-18.93 42 30.78h89.95a31.852 31.852 0 0131.286 31.845 31.853 31.853 0 01-31.286 31.845H609v-4l51.59-37.84h-102.3l-30.71 41.87zm113.23 39.66h-71.54v-71.56H630L599 246v19.09h41.85a41.85 41.85 0 000-83.69h-86.72l-40.47-29.69h127.15a71.543 71.543 0 0170.694 71.535 71.537 71.537 0 01-70.694 71.535v.02z" fill="#003C83"></path>
    <path d="M345.02 141.73h-.1l-16.78 10h18.97l-2.09-10zM376.92 141.73h-.1l-2.09 10h18.96l-16.77-10z" fill="#003C83"></path>
    <path d="M345 141.68l-56.3 33.56 35.72-49.93L70.5 112.73l-49.74-3.65 49.74-3.34 253.93-12.58-35.72-49.94L345 76.79 360.91.73l15.91 76.06 56.3-33.57-35.72 49.94 253.93 12.58 49.77 3.34-49.77 3.65-253.92 12.58 35.72 49.93-56.3-33.56-15.91 76.05L345 141.68zm63 10.41L384.25 119l196.18-9.72-196.18-9.72L408 66.38l-36 21.44-11.07-52.9-11.07 52.9-36-21.44 23.7 33.13-196.17 9.72L337.58 119l-23.7 33.14 36-21.45 11.07 52.91L372 130.64l36 21.45z" fill="#D21217"></path>
    <path d="M408 152.09L384.25 119l196.18-9.72-196.18-9.72L408 66.38l-36 21.44-11.07-52.9-11.07 52.9-36-21.44 23.7 33.13-196.17 9.72L337.58 119l-23.7 33.14 36-21.45 11.07 52.91L372 130.64l36 21.45z" fill="#fff"></path>
  </g>
</svg>